<svg width="302" height="302" xmlns="http://www.w3.org/2000/svg" xmlns:xlink="http://www.w3.org/1999/xlink" overflow="hidden"><defs><clipPath id="clip0"><rect x="0" y="0" width="302" height="302"/></clipPath></defs><g clip-path="url(#clip0)"><path d="M197.558 192.84C199.131 189.694 198.188 185.919 195.042 184.346 191.896 182.773 188.121 183.717 186.548 186.863L173.965 209.198 182.458 175.537C183.402 172.077 181.2 168.617 177.74 167.988 174.279 167.044 170.819 169.246 170.19 172.706L162.954 201.648 162.954 170.19C162.954 166.729 160.123 163.898 156.662 163.898 153.202 163.898 150.371 166.729 150.371 170.19L150.371 203.85 143.135 172.706C142.506 169.246 139.046 167.358 135.585 167.988 132.125 168.617 130.238 172.077 130.867 175.537L139.675 212.973C139.36 217.377 138.417 221.781 137.473 225.556 137.473 225.556 137.473 225.242 137.158 225.242 131.81 217.063 123.317 209.827 115.137 207.625 111.992 206.681 108.846 208.569 107.902 211.715 106.958 214.86 108.846 218.006 111.992 218.95 116.081 219.894 119.856 225.871 123.946 232.163 128.979 240.027 135.271 249.15 144.708 254.498L144.708 288.158 172.392 288.158 172.392 252.61C182.773 247.262 184.031 224.927 184.346 216.433L197.558 192.84Z" fill="#68C8B5"/><path d="M86.5104 195.356 113.879 195.671C113.879 195.671 113.879 195.671 113.879 195.671 117.34 195.671 120.171 192.84 120.171 189.379 120.171 185.919 117.34 183.087 113.879 183.087L88.3979 182.773 121.744 174.279C125.204 173.335 127.092 169.875 126.148 166.729 125.204 163.269 121.744 161.381 118.598 162.325L89.6563 169.875 117.34 154.775C120.485 153.202 121.429 149.427 119.856 146.281 118.283 143.135 114.508 142.192 111.363 143.765L81.7917 159.494 105.7 138.417C108.217 136.215 108.531 132.125 106.329 129.608 104.127 127.092 100.037 126.777 97.5208 128.979L68.5792 154.146C64.4896 156.033 60.4 157.292 56.3104 157.921 56.3104 157.921 56.3104 157.606 56.625 157.606 61.3438 148.798 63.5458 138.102 61.6583 129.923 61.0292 126.777 57.5687 124.89 54.4229 125.519 51.2771 126.148 49.3896 129.608 50.0187 132.754 50.9625 136.844 47.8167 142.821 44.3563 149.427 39.9521 157.606 34.9188 167.358 34.6042 178.369L5.03333 194.412 18.2458 218.635 49.3896 201.962C58.8271 208.569 78.9604 199.131 86.5104 195.356Z" fill="#68C8B5"/><path d="M89.9708 92.8021 96.5771 119.227C97.2062 122.058 99.7229 123.946 102.554 123.946 103.183 123.946 103.498 123.946 104.127 123.631 107.588 122.688 109.475 119.542 108.846 116.081L102.869 91.2292 119.542 121.115C120.8 123.317 122.688 124.26 125.204 124.26 126.148 124.26 127.406 123.946 128.35 123.317 131.496 121.744 132.44 117.654 130.867 114.823L116.396 88.7125 137.787 111.677C139.046 112.935 140.619 113.565 142.506 113.565 144.079 113.565 145.652 112.935 146.91 111.992 149.427 109.475 149.427 105.7 147.225 103.183L124.26 78.6458 151 96.5771C151.944 97.2062 153.202 97.5208 154.46 97.5208 156.348 97.5208 158.55 96.5771 159.808 94.6896 161.696 91.8583 161.067 87.7687 158.235 85.8812L126.148 64.4896C123.317 61.0292 121.115 57.2542 119.227 53.7938 119.227 53.7938 119.542 53.7938 119.542 53.7938 128.979 55.9958 139.99 55.6813 147.54 51.5917 150.371 50.0187 151.315 46.5583 149.742 43.7271 148.169 40.8958 144.708 39.9521 141.877 41.525 138.417 43.4125 131.496 41.8396 124.26 40.2667 115.137 38.0646 104.442 35.5479 93.7458 38.3792L70.7813 13.8417 50.6479 32.7167 74.8708 58.5125C69.8375 69.5229 83.9938 86.825 89.9708 92.8021Z" fill="#68C8B5"/><path d="M296.967 216.433 273.058 190.323C277.148 179.313 262.992 162.01 257.329 155.719L251.038 129.294C250.094 125.833 246.948 123.946 243.488 124.575 240.027 125.519 238.14 128.665 238.769 132.125L244.746 156.977 228.073 126.777C226.5 123.631 222.725 122.688 219.579 124.26 216.433 125.833 215.49 129.608 217.063 132.754L231.533 159.179 210.142 136.215C207.625 133.698 203.85 133.383 201.333 135.9 198.817 138.417 198.502 142.192 201.019 144.708L223.983 169.56 197.558 151.629C194.727 149.742 190.637 150.371 188.75 153.202 186.863 156.033 187.492 160.123 190.323 162.01L222.096 183.717C224.927 187.177 227.129 190.952 229.017 194.412 229.017 194.412 228.702 194.412 228.702 194.412 219.265 192.21 208.254 192.525 200.704 196.615 197.873 198.188 196.615 201.648 198.188 204.479 199.76 207.31 203.221 208.569 206.052 206.996 209.512 205.108 216.433 206.681 223.669 208.569 232.792 210.771 243.488 213.288 254.183 210.771L276.833 235.308 296.967 216.433Z" fill="#68C8B5"/><path d="M167.673 81.7917C168.302 81.7917 168.931 81.7917 169.875 81.4771L193.783 72.9833 165.471 92.4875C162.64 94.375 162.01 98.4646 163.898 101.296 165.156 103.183 167.044 104.127 168.931 104.127 170.19 104.127 171.448 103.813 172.392 102.869L196.929 85.8812 176.167 109.475C173.965 111.992 174.279 116.081 176.796 118.283 178.054 119.227 179.313 119.856 180.885 119.856 182.773 119.856 184.346 119.227 185.604 117.654L207.94 92.1729 192.84 120.485C191.267 123.631 192.21 127.406 195.356 128.979 196.3 129.608 197.244 129.608 198.188 129.608 200.39 129.608 202.592 128.35 203.85 126.148L222.096 92.1729C225.242 89.0271 228.702 86.5104 232.163 84.3083 232.163 84.3083 232.163 84.6229 232.163 84.6229 230.904 94.375 232.477 105.385 237.196 112.306 239.083 115.137 242.544 115.767 245.375 113.879 248.206 111.992 248.835 108.531 246.948 105.7 244.746 102.24 245.69 95.3187 246.633 87.7687 247.892 78.6458 249.15 67.6354 245.69 57.2542L267.71 32.0875 246.948 13.8417 223.669 40.5812C212.344 37.75 196.615 53.7938 190.952 59.7708L165.156 68.8937C162.01 70.1521 160.123 73.6125 161.381 77.0729 162.64 80.2188 165.156 81.7917 167.673 81.7917Z" fill="#68C8B5"/></g></svg>