<svg width="388" height="388" xmlns="http://www.w3.org/2000/svg" xmlns:xlink="http://www.w3.org/1999/xlink" overflow="hidden"><defs><clipPath id="clip0"><rect x="0" y="0" width="388" height="388"/></clipPath></defs><g clip-path="url(#clip0)"><path d="M220.796 364.819 212.713 364.819 212.713 322.834C212.713 321.321 213.558 319.934 214.903 319.241 218.89 317.187 225.742 309.351 226.831 279.959 226.854 279.318 227.03 278.692 227.344 278.133L242.945 250.266C243.336 249.443 243.42 248.507 243.181 247.627 242.968 246.839 242.424 246.182 241.69 245.824 240.123 244.867 238.078 245.361 237.12 246.927 237.107 246.948 237.095 246.969 237.082 246.991L222.131 273.544C221.035 275.489 218.57 276.176 216.625 275.08 215.038 274.185 214.246 272.339 214.691 270.572L224.723 230.82C224.984 229.951 224.859 229.013 224.38 228.243 223.927 227.518 223.189 227.019 222.347 226.869 221.404 226.543 220.365 226.647 219.505 227.152 218.778 227.604 218.278 228.344 218.131 229.187L209.531 263.626C208.988 265.791 206.793 267.107 204.628 266.564 202.83 266.114 201.57 264.499 201.568 262.646L201.568 225.613C201.593 223.8 200.218 222.274 198.413 222.109 196.544 221.982 194.927 223.394 194.799 225.263 194.795 225.339 194.792 225.415 194.792 225.491L194.792 265.245C194.787 267.477 192.973 269.283 190.742 269.278 188.868 269.274 187.243 267.983 186.815 266.159L178.274 229.376C177.859 227.546 176.038 226.398 174.208 226.813 172.377 227.229 171.23 229.049 171.645 230.88 171.66 230.949 171.678 231.017 171.698 231.084L182.055 275.095C182.147 275.492 182.179 275.901 182.15 276.307 181.691 281.559 180.785 286.763 179.442 291.86 178.9 294.026 176.705 295.342 174.54 294.8 173.751 294.603 173.04 294.172 172.5 293.564 172.216 293.319 171.969 293.035 171.765 292.721 166.286 283.839 157.936 277.095 148.1 273.607 147.376 273.363 146.584 273.436 145.917 273.809 145.213 274.229 144.698 274.903 144.477 275.693 144.067 277.21 144.964 278.772 146.482 279.181 146.518 279.191 146.555 279.2 146.592 279.209 152.614 280.588 157.194 287.637 162.494 295.798L162.937 296.481C168.757 305.575 175.807 315.737 186.058 321.548 187.324 322.266 188.106 323.609 188.106 325.064L188.106 364.819 180.023 364.819 180.023 327.35C170.221 320.374 162.07 311.332 156.145 300.862L155.719 300.2C151.919 294.355 147.615 287.73 144.523 287.017 138.677 285.528 135.144 279.582 136.633 273.736 136.664 273.614 136.697 273.494 136.732 273.373 137.543 270.604 139.387 268.253 141.883 266.805 144.434 265.323 147.488 264.971 150.309 265.835 159.316 268.733 167.305 274.148 173.333 281.441 173.349 281.457 173.375 281.456 173.39 281.441 173.395 281.435 173.399 281.429 173.4 281.422 173.671 279.771 173.898 278.054 174.042 276.336L163.786 232.732C162.347 226.56 166.184 220.39 172.356 218.951 178.528 217.512 184.698 221.349 186.137 227.521 186.154 227.593 186.17 227.665 186.185 227.737L186.633 229.655C186.676 229.839 186.71 229.835 186.71 229.647L186.71 225.732C186.662 219.47 191.579 214.294 197.836 214.023 204.176 213.839 209.465 218.831 209.649 225.171 209.652 225.278 209.653 225.384 209.653 225.491L209.653 229.479C209.653 229.654 209.688 229.658 209.73 229.488L210.234 227.483C210.826 224.51 212.622 221.914 215.195 220.311 217.858 218.641 221.099 218.161 224.131 218.989 227.073 219.591 229.636 221.378 231.22 223.929 232.888 226.594 233.367 229.834 232.542 232.867L229.991 242.975C229.955 243.118 229.986 243.132 230.061 243.006 230.194 242.811 230.307 242.603 230.399 242.386 233.62 237.429 240.109 235.779 245.306 238.594 248.078 239.965 250.136 242.451 250.964 245.43 251.757 248.312 251.443 251.386 250.085 254.049L234.871 281.235C233.896 304.609 229.282 319.008 220.796 325.087Z" fill="#C980AC"/><path d="M29.6335 275.45 25.821 268.324 62.5945 248.632C63.9375 247.914 65.57 248.012 66.8176 248.885 73.0382 253.239 87.511 250.287 106.524 240.778 107.1 240.492 107.735 240.346 108.379 240.352L140.696 240.723C142.568 240.71 144.075 239.182 144.062 237.31 144.049 235.439 142.521 233.932 140.649 233.945L110.51 233.573C108.279 233.546 106.491 231.714 106.519 229.482 106.542 227.653 107.79 226.067 109.563 225.615L148.938 215.584C149.81 215.346 150.551 214.768 150.994 213.98 151.385 213.302 151.482 212.494 151.263 211.743 151.043 210.806 150.446 210.002 149.613 209.52 148.935 209.132 148.129 209.035 147.379 209.252L113.068 218.21C110.908 218.773 108.701 217.479 108.137 215.319 107.668 213.524 108.483 211.64 110.112 210.751L142.8 192.918C144.435 192.041 145.051 190.006 144.175 188.37 143.298 186.735 141.263 186.12 139.627 186.996 139.58 187.022 139.532 187.048 139.486 187.076L104.658 205.607C102.687 206.654 100.24 205.904 99.1934 203.932 98.3176 202.281 98.6874 200.245 100.088 199.008L128.319 174.115C128.975 173.513 129.37 172.679 129.42 171.789 129.504 170.929 129.241 170.071 128.69 169.405 128.091 168.754 127.261 168.362 126.377 168.314 125.518 168.232 124.66 168.493 123.993 169.041L89.8127 198.769C89.5241 199.021 89.2012 199.23 88.8536 199.39 83.9131 201.703 78.6735 203.312 73.2867 204.172 71.082 204.514 69.0183 203.003 68.6772 200.799 68.6453 200.594 68.6295 200.386 68.6295 200.178 68.6287 199.012 69.0915 197.892 69.916 197.066 74.7672 188.209 76.571 178.002 75.0489 168.018 74.8893 167.297 74.4277 166.679 73.7818 166.321 73.0147 165.874 72.1138 165.715 71.24 165.872 69.701 166.439 68.828 168.067 69.2071 169.663 70.6281 175.809 66.7206 183.268 62.2012 191.904 56.494 202.507 51.4144 212.843 51.0867 224.443 51.0434 225.883 50.2375 227.192 48.9713 227.879L14.0513 246.827 10.1987 239.723 43.1282 221.853C44.6996 209.941 48.7421 198.488 54.9966 188.229 58.3358 181.852 62.0776 174.709 61.304 171.361 59.9763 165.362 63.6841 159.402 69.6517 157.942 72.4748 157.399 75.3993 157.9 77.8809 159.352 80.4963 160.833 82.3437 163.372 82.9487 166.316 84.6301 175.683 83.6176 185.335 80.0294 194.15 80.0234 194.171 80.0355 194.194 80.0569 194.2 80.0638 194.202 80.0711 194.202 80.0779 194.2 81.7055 193.651 83.3299 193.011 84.9502 192.282L118.681 162.943C123.467 158.9 130.602 159.402 134.776 164.075 136.743 166.372 137.717 169.357 137.484 172.372 137.274 175.376 135.899 178.178 133.652 180.181L131.506 182.074C131.368 182.195 131.388 182.223 131.549 182.138L135.779 179.888C141.353 176.916 148.282 179.026 151.254 184.6 154.226 190.174 152.117 197.103 146.542 200.075L143.161 201.921C143.01 202.002 143.023 202.035 143.189 201.992 143.189 201.992 143.653 201.869 143.767 201.844 147.01 201.06 150.415 201.271 153.536 202.45 156.254 203.959 158.239 206.511 159.033 209.517 159.853 212.327 159.504 215.349 158.063 217.898 156.554 220.613 154.004 222.597 151.002 223.394L141.506 225.814C141.38 225.846 141.385 225.877 141.514 225.886 147.834 226.343 152.588 231.837 152.131 238.158 151.696 244.172 146.68 248.824 140.65 248.805L109.26 248.445C88.7558 258.567 73.686 261.378 64.4189 256.823Z" fill="#C980AC"/><path d="M349.13 294.32 323.94 267.023C311.033 269.402 298.533 266.377 288.378 263.927 283.491 262.654 273.464 260.043 270.462 261.688 267.889 263.119 264.829 263.392 262.043 262.439 259.339 261.527 257.076 259.631 255.705 257.128 254.261 254.552 253.982 251.483 254.937 248.688 255.848 245.983 257.744 243.72 260.246 242.347 268.796 238.279 278.334 236.753 287.726 237.951 287.748 237.951 287.767 237.934 287.767 237.911 287.767 237.905 287.766 237.898 287.763 237.892 286.816 236.455 285.796 235.025 284.697 233.648L247.671 208.347C242.532 204.691 241.23 197.613 244.73 192.367 248.148 187.244 253.46 184.516 258.718 188.025L262.565 190.626C262.718 190.729 262.74 190.703 262.615 190.568L259.614 187.318C255.323 182.924 255.407 175.883 259.801 171.592 259.897 171.498 259.996 171.405 260.095 171.315 262.255 169.099 265.267 167.924 268.357 168.092 271.33 168.273 274.13 169.554 276.211 171.686L279.351 175.056C279.467 175.181 279.495 175.161 279.413 175.011L277.983 172.397C276.574 169.705 276.235 166.58 277.032 163.648 277.858 160.667 279.916 158.179 282.69 156.81 285.354 155.454 288.427 155.141 291.31 155.932 294.29 156.758 296.775 158.816 298.14 161.59L303.165 170.692C303.232 170.813 303.264 170.801 303.237 170.666 303.237 170.666 303.207 170.541 303.197 170.483 301.855 164.291 305.786 158.185 311.977 156.843 318.044 155.528 324.056 159.278 325.544 165.304L332.767 195.649C341.773 205.799 355.043 223.559 352.146 237.38L378.855 266.558 372.895 272.016 344.662 241.178C343.637 240.061 343.325 238.463 343.854 237.042 347.15 228.175 336.825 212.239 326.071 200.283 325.616 199.782 325.296 199.173 325.141 198.515L317.713 167.305C317.24 165.431 315.338 164.297 313.464 164.769 313.46 164.771 313.455 164.772 313.45 164.773 311.665 165.322 310.639 167.19 311.133 168.991L318.143 198.122C318.671 200.291 317.341 202.477 315.172 203.006 313.396 203.438 311.55 202.624 310.672 201.021L290.984 165.352C290.637 164.552 289.949 163.95 289.109 163.713 288.166 163.471 287.165 163.589 286.303 164.043 285.566 164.394 285.02 165.052 284.811 165.842 284.569 166.786 284.687 167.787 285.143 168.65L302.158 199.727C303.228 201.686 302.507 204.142 300.548 205.211 298.929 206.095 296.917 205.771 295.658 204.423L270.397 177.301C269.744 176.642 268.876 176.24 267.95 176.169 267.146 176.139 266.368 176.454 265.811 177.033 264.42 178.145 264.194 180.172 265.305 181.563 265.348 181.618 265.393 181.67 265.44 181.722L292.666 211.189C294.179 212.83 294.074 215.387 292.433 216.9 291.054 218.171 288.982 218.326 287.428 217.275L256.227 196.096C254.681 194.999 252.538 195.363 251.441 196.908 250.36 198.431 250.694 200.537 252.193 201.651L289.748 227.313C290.066 227.531 290.352 227.794 290.597 228.091 293.864 232.235 296.741 236.672 299.189 241.346 300.258 243.305 299.537 245.761 297.577 246.83 296.983 247.154 296.317 247.324 295.641 247.324 295.208 247.323 294.777 247.288 294.35 247.218 284.322 244.474 273.656 245.258 264.136 249.436 263.422 249.833 262.879 250.478 262.609 251.249 262.379 251.894 262.438 252.608 262.771 253.207 263.166 253.938 263.819 254.496 264.602 254.774 265.249 255.003 265.963 254.944 266.564 254.612 271.979 251.656 280.536 253.534 290.344 256.092 300.215 258.473 312.585 261.454 324.43 258.669 325.85 258.336 327.339 258.792 328.329 259.863L355.074 288.841Z" fill="#C980AC"/><path d="M251.456 166.433C249.58 166.549 247.713 166.103 246.092 165.153 243.42 163.764 241.447 161.327 240.645 158.425 239.853 155.544 240.167 152.469 241.525 149.807L242.756 147.489C242.85 147.318 242.821 147.298 242.693 147.445L239.634 150.936C237.555 153.551 234.361 155.027 231.022 154.914 228.375 154.858 225.822 153.919 223.768 152.247 221.4 150.229 219.937 147.349 219.703 144.247 219.47 141.232 220.444 138.247 222.41 135.95L224.905 133.118C225.029 132.977 225.005 132.952 224.853 133.061L223.547 133.957C221.718 135.567 219.344 136.418 216.909 136.338 213.134 136.314 209.628 134.377 207.601 131.192 204.098 125.931 205.419 118.836 210.581 115.187L218.595 109.665C218.696 109.595 218.68 109.566 218.561 109.597 217.537 109.864 216.481 109.986 215.424 109.959 210.37 109.847 205.915 106.616 204.238 101.847 202.035 95.8764 205.022 89.2416 210.952 86.933L240.649 76.4247C256.729 59.6081 269.592 51.8728 279.98 52.8872L305.982 23.0108 312.076 28.3171 284.59 59.8975C283.591 61.0401 282.038 61.5291 280.564 61.1654 276.242 60.0866 265.974 61.4366 245.843 82.688 245.403 83.1524 244.86 83.5057 244.257 83.7191L213.798 94.4942C212.033 95.1998 211.147 97.177 211.793 98.9638 212.289 100.589 213.73 101.744 215.424 101.874 215.87 101.908 216.318 101.852 216.742 101.71L244.9 91.7054C247.003 90.9565 249.315 92.0542 250.063 94.1567 250.678 95.8821 250.055 97.8047 248.547 98.8426L215.116 121.876C213.623 123.03 213.278 125.143 214.327 126.711 214.867 127.633 215.841 128.215 216.908 128.254 217.338 128.29 217.767 128.185 218.132 127.954 218.304 127.782 218.492 127.626 218.692 127.487L247.666 107.424C249.503 106.155 252.02 106.615 253.289 108.451 254.343 109.976 254.224 112.022 253.001 113.415L228.487 141.282C227.941 141.947 227.681 142.801 227.765 143.658 227.815 144.542 228.206 145.372 228.856 145.974 229.46 146.497 230.225 146.8 231.023 146.831 231.963 146.927 232.884 146.515 233.439 145.75L259.93 115.513C261.398 113.832 263.951 113.658 265.633 115.125 267.053 116.364 267.428 118.42 266.538 120.08L248.709 153.519C248.287 154.359 248.187 155.324 248.426 156.233 248.637 157.024 249.183 157.682 249.922 158.033 250.073 158.11 250.219 158.195 250.36 158.289 250.722 158.348 251.09 158.368 251.457 158.351 252.806 158.28 254.016 157.498 254.635 156.297L276.125 116.267C276.311 115.919 276.548 115.6 276.828 115.321 280.641 111.584 284.859 108.283 289.403 105.48 291.286 104.281 293.784 104.836 294.983 106.718 295.396 107.367 295.616 108.121 295.616 108.89 295.616 109.062 295.604 109.608 295.584 109.779 293.913 120.055 295.77 130.594 300.852 139.68 301.741 141.021 303.55 141.388 304.891 140.498 306.233 139.609 306.599 137.8 305.71 136.459 305.695 136.438 305.681 136.417 305.667 136.396 302.308 131.119 303.35 122.813 304.558 113.197L304.649 112.474C306.204 101.192 307.404 89.2974 303.709 78.2155 303.255 76.8551 303.555 75.3557 304.498 74.2753L330.501 44.5529 336.587 49.8742 312.069 77.9003C314.752 89.6041 314.953 101.74 312.661 113.526L312.58 114.202C311.696 121.25 310.693 129.237 312.442 131.985 315.8 137.046 314.42 143.871 309.36 147.229 304.32 150.573 297.525 149.22 294.152 144.2 289.221 136.047 286.749 126.644 287.031 117.121 287.03 117.099 287.01 117.082 286.988 117.084 286.981 117.085 286.974 117.087 286.968 117.091 285.521 118.249 284.195 119.419 282.958 120.625L261.702 160.215C259.651 163.978 255.74 166.351 251.456 166.433Z" fill="#C980AC"/><path d="M155.273 160.115C151.059 160.288 147.11 158.062 145.078 154.366L139.838 144.975C139.772 144.856 139.739 144.867 139.766 145.001L139.891 145.47C141.187 151.434 137.666 157.388 131.816 159.126 130.783 159.584 129.657 159.797 128.528 159.746 123.257 159.797 118.668 156.153 117.524 151.007L110.014 120.955C105.759 116.488 86.8554 95.4953 91.2111 79.3937L64.2936 50.7221 70.1904 45.1907 98.79 75.656C99.9124 76.8527 100.2 78.6096 99.5175 80.1018 95.193 89.5738 107.66 107.187 116.533 116.064 117.05 116.582 117.417 117.231 117.595 117.941L125.395 149.151C125.706 150.63 127.021 151.683 128.533 151.662 128.791 151.56 129.058 151.483 129.33 151.432 131.24 150.995 132.434 149.093 131.998 147.183 131.994 147.168 131.99 147.152 131.987 147.137L124.968 118.008C124.446 115.838 125.781 113.655 127.951 113.132 129.714 112.707 131.545 113.509 132.428 115.094L152.115 150.39C152.709 151.556 153.977 152.216 155.273 152.032 155.79 152.01 156.294 151.861 156.741 151.598 156.882 151.505 157.028 151.42 157.179 151.344 157.891 150.969 158.418 150.317 158.635 149.542 158.921 148.665 158.846 147.712 158.426 146.891L141.337 116.049C140.255 114.096 140.961 111.636 142.913 110.555 144.537 109.655 146.565 109.977 147.83 111.335L173.09 138.458C174.567 139.71 176.724 139.738 178.233 138.525 179.437 137.197 179.437 135.172 178.233 133.844L151.207 104.962C149.683 103.332 149.769 100.774 151.4 99.2496 152.772 97.9664 154.848 97.7982 156.409 98.8442L187.985 120.023C188.547 120.328 189.181 120.476 189.82 120.453 190.992 120.429 192.084 119.856 192.771 118.907 193.812 117.36 193.491 115.273 192.033 114.11L154.149 88.8447C153.815 88.622 153.515 88.3508 153.26 88.0404 149.991 83.8973 147.114 79.4596 144.667 74.7838 143.598 72.8244 144.32 70.369 146.279 69.3 146.873 68.9759 147.539 68.8061 148.216 68.8061 148.648 68.8061 149.08 68.8413 149.507 68.9116 159.535 71.6531 170.2 70.8698 179.72 66.6936 180.35 66.352 180.814 65.768 181.003 65.0769 181.197 64.3486 181.093 63.5726 180.715 62.9207 180.375 62.2748 179.784 61.7975 179.081 61.6003 178.351 61.4103 177.576 61.5142 176.922 61.8896 171.597 64.7964 163.415 63.0213 153.939 60.9601L153.3 60.821C143.298 58.4065 130.952 55.4234 119.162 58.5504 117.724 58.9295 116.194 58.4898 115.176 57.405L88.0606 28.4263 93.9647 22.9021 119.478 50.1716C132.411 47.4637 144.928 50.4865 155.107 52.9434L155.655 53.0618C162.211 54.4893 170.362 56.2665 173.026 54.8111 175.526 53.4082 178.48 53.0501 181.244 53.8144 184.033 54.5892 186.39 56.4593 187.779 58.999 189.195 61.5049 189.559 64.4702 188.79 67.244 188.017 70.034 186.147 72.3919 183.608 73.781 175.08 77.8967 165.535 79.4321 156.147 78.1982 156.125 78.1978 156.106 78.216 156.106 78.2382 156.106 78.2446 156.107 78.2511 156.111 78.2572 157.049 79.681 158.057 81.0976 159.145 82.4605L196.518 107.383C201.777 111.069 203.053 118.32 199.367 123.579 197.186 126.692 193.621 128.542 189.82 128.534 187.581 128.565 185.381 127.942 183.491 126.741 183.491 126.741 182.597 126.146 181.528 125.424 181.371 125.318 181.35 125.343 181.479 125.483L184.227 128.42C188.391 133.022 188.186 140.088 183.762 144.44 183.628 144.576 183.484 144.701 183.332 144.815 181.143 146.5 178.468 147.436 175.706 147.482 172.548 147.534 169.504 146.301 167.271 144.067L164.604 141.2C164.485 141.072 164.457 141.093 164.542 141.245L165.497 142.968C166.985 145.715 167.296 148.948 166.357 151.928 165.522 154.734 163.597 157.087 161.013 158.462 159.285 159.523 157.3 160.095 155.273 160.115Z" fill="#C980AC"/></g></svg>